<?xml version="1.0" encoding="utf-8"?>
<!-- Generator: Adobe Illustrator 19.1.0, SVG Export Plug-In . SVG Version: 6.00 Build 0)  -->
<svg version="1.1" id="Layer_7_copy_3" xmlns="http://www.w3.org/2000/svg" xmlns:xlink="http://www.w3.org/1999/xlink" x="0px"
	 y="0px" viewBox="0 0 1080 240" style="enable-background:new 0 0 1080 240;" xml:space="preserve">
<style type="text/css">
	.st0{fill:#F15A29;}
	.st1{fill:#27AAE1;}
	.st2{fill:#D31282;}
	.st3{fill:#59595A;}
</style>
<g>
	<path class="st0" d="M62.1,146.1V99.8h-7V83.3h7V51.9h24.7v31.4h11.9v16.5H86.7V152c0,2.6,0.5,4.6,1.5,5.9c1,1.3,2.7,1.9,5.2,1.9
		c2.8,0,5.2-0.1,7.2-0.4v19.1c-3.2,1-8.4,1.5-15.6,1.5c-2.9,0-5.5-0.3-7.8-1c-2.3-0.7-4.3-1.6-5.9-2.7c-1.6-1.1-3-2.6-4.1-4.4
		c-1.1-1.8-2.1-3.6-2.7-5.4c-0.7-1.8-1.2-4-1.5-6.4c-0.4-2.4-0.6-4.7-0.7-6.8C62.1,151.2,62.1,148.8,62.1,146.1z"/>
	<path class="st0" d="M109.3,178.9V47.1H134v43.1c2.4-2.7,5.2-4.9,8.5-6.5c3.3-1.7,6.7-2.5,10.2-2.5c3.4,0,6.4,1.1,9,3.2
		c2.7,2.1,4.6,4.8,5.9,7.9c1.3,3.1,1.9,6.3,1.9,9.7v77H145v-70.5c0-0.2,0-0.6,0-1.3c0-0.7,0-1.2,0-1.6c0-0.4,0-1-0.1-1.6
		c0-0.7-0.1-1.2-0.3-1.6c-0.1-0.4-0.3-0.8-0.6-1.2c-0.2-0.4-0.6-0.8-1-1c-0.4-0.2-0.9-0.3-1.5-0.3c-1,0-2,0.4-3.1,1.2
		c-1.1,0.8-1.9,1.4-2.4,2c-0.5,0.5-1.2,1.3-2.1,2.3v73.6H109.3z"/>
	<path class="st0" d="M183.1,75V51.9h24.7V75H183.1z M183.1,178.9V83.3h24.7v95.6H183.1z"/>
	<path class="st0" d="M217.6,155.8l18.9-6.7c0.5,1.5,0.9,2.6,1.2,3.4c0.3,0.8,0.8,2,1.5,3.5c0.7,1.5,1.4,2.7,2.1,3.6
		c0.7,0.8,1.5,1.6,2.6,2.3c1,0.7,2.2,1.1,3.3,1.1c3.1,0,4.6-1.8,4.6-5.4c0-1.3-0.3-2.7-0.9-4.1c-0.6-1.4-1.2-2.6-1.9-3.6
		c-0.7-1-1.8-2.3-3.4-3.9c-1.6-1.6-2.9-2.8-3.8-3.6c-0.9-0.8-2.4-2.1-4.6-4l-4-3.4c-5.2-4.5-9.3-9-12.3-13.4
		c-3-4.4-4.5-9.3-4.5-14.6c0-4.1,0.9-7.9,2.6-11.2c1.7-3.3,4.1-6,7-8.1s6.2-3.6,9.9-4.7c3.6-1.1,7.5-1.6,11.5-1.6
		c3.6,0,7,0.8,10.3,2.3c3.3,1.5,6.1,3.5,8.6,6c2.5,2.5,4.6,5.3,6.4,8.5c1.8,3.2,3.2,6.5,4.2,9.9l-17.7,6.1c-0.6-1.5-1.1-2.7-1.5-3.6
		c-0.4-1-1-2.2-1.9-3.7c-0.9-1.5-1.7-2.8-2.5-3.7c-0.8-0.9-1.8-1.7-3-2.5c-1.2-0.7-2.4-1.1-3.7-1.1c-1.7,0-3,0.6-4,1.8
		c-1,1.2-1.4,2.6-1.4,4.2c0,2.1,1.2,4.6,3.6,7.2c2.4,2.7,5.6,5.7,9.8,9.2l4.5,4c2.4,2.2,4.6,4.3,6.3,6.2c1.8,1.9,3.6,4.1,5.3,6.6
		c1.8,2.4,3.1,5,4.1,7.7c1,2.7,1.4,5.4,1.4,8.1c0,7.7-2.7,14.1-8.2,19.1c-5.4,5-12,7.5-19.7,7.5c-7.5,0-13.9-2.3-19.3-7
		C223.4,169.4,219.7,163.4,217.6,155.8z"/>
	<path class="st1" d="M286.1,178.9V47.1h26.7v131.8H286.1z"/>
	<path class="st1" d="M323.4,155.8l18.9-6.7c0.5,1.5,0.9,2.6,1.2,3.4c0.3,0.8,0.8,2,1.5,3.5c0.7,1.5,1.4,2.7,2.1,3.6
		c0.7,0.8,1.5,1.6,2.6,2.3c1,0.7,2.2,1.1,3.3,1.1c3.1,0,4.6-1.8,4.6-5.4c0-1.3-0.3-2.7-0.9-4.1c-0.6-1.4-1.2-2.6-1.9-3.6
		c-0.7-1-1.8-2.3-3.4-3.9c-1.6-1.6-2.9-2.8-3.8-3.6c-0.9-0.8-2.4-2.1-4.6-4l-4-3.4c-5.2-4.5-9.3-9-12.3-13.4
		c-3-4.4-4.5-9.3-4.5-14.6c0-4.1,0.9-7.9,2.6-11.2c1.7-3.3,4.1-6,7-8.1s6.2-3.6,9.9-4.7c3.6-1.1,7.5-1.6,11.5-1.6
		c3.6,0,7,0.8,10.3,2.3c3.3,1.5,6.1,3.5,8.6,6c2.5,2.5,4.6,5.3,6.4,8.5c1.8,3.2,3.2,6.5,4.2,9.9l-17.7,6.1c-0.6-1.5-1.1-2.7-1.5-3.6
		c-0.4-1-1-2.2-1.9-3.7c-0.9-1.5-1.7-2.8-2.5-3.7c-0.8-0.9-1.8-1.7-3-2.5c-1.2-0.7-2.4-1.1-3.7-1.1c-1.7,0-3,0.6-4,1.8
		c-1,1.2-1.4,2.6-1.4,4.2c0,2.1,1.2,4.6,3.6,7.2c2.4,2.7,5.6,5.7,9.8,9.2l4.5,4c2.4,2.2,4.6,4.3,6.3,6.2c1.8,1.9,3.6,4.1,5.3,6.6
		c1.8,2.4,3.1,5,4.1,7.7c1,2.7,1.4,5.4,1.4,8.1c0,7.7-2.7,14.1-8.2,19.1c-5.4,5-12,7.5-19.7,7.5c-7.5,0-13.9-2.3-19.3-7
		C329.3,169.4,325.5,163.4,323.4,155.8z"/>
	<path class="st2" d="M391.9,178.9V47h19.2l28.9,69V47h22.1v131.9h-18.5l-28.9-73.2v73.2H391.9z"/>
	<path class="st2" d="M475.7,154.1v-40.6c0-10.2,2.4-18.1,7.2-23.8c4.8-5.6,12.3-8.5,22.5-8.5c10.2,0,17.8,2.8,22.7,8.5
		c4.9,5.6,7.4,13.6,7.4,23.8v40.6c0,8-3,14.4-8.9,19.4c-5.9,5-13,7.5-21.2,7.5c-5.3,0-10.2-1.1-14.7-3.3c-4.5-2.2-8.1-5.3-10.9-9.5
		C477.1,164.1,475.7,159.4,475.7,154.1z M511.1,154.4v-47.3c0-4.8-1.9-7.3-5.6-7.3c-3.4,0-5.1,2.4-5.1,7.3v47.3c0,1.1,0,2,0.1,2.7
		c0.1,0.7,0.3,1.5,0.5,2.5c0.3,1,0.8,1.7,1.5,2.2c0.7,0.5,1.7,0.7,2.9,0.7C509.2,162.4,511.1,159.8,511.1,154.4z"/>
	<path class="st2" d="M556.7,178.9l-14-95.6h20.6l7.6,59l7.9-59h18.6l7.2,60.1l8.3-60.1h19l-14.1,95.6h-21.2l-9-56.5l-9.7,56.5
		H556.7z"/>
	<path class="st3" d="M639.3,160.6v-56.5c0-6.1,1.9-11.4,5.7-16c3.8-4.6,8.5-7,14.1-7c3.1,0,6,0.8,8.8,2.4c2.8,1.6,5.1,3.7,7.1,6.3
		V47.1h24.7v131.8H675v-7.2c-2,2.9-4.4,5.2-7.3,6.8s-6,2.5-9.3,2.5c-5.4,0-10-2-13.6-6.1C641.1,170.9,639.3,166.1,639.3,160.6z
		 M675,157.2v-51.9c-2.8-3.7-5.1-5.5-7-5.5c-2.7,0-4.1,2.1-4.1,6.3v49.4c0,1.3,0.1,2.4,0.2,3.3c0.1,0.9,0.5,1.7,1.2,2.5
		c0.7,0.8,1.6,1.2,2.7,1.2C670.2,162.4,672.5,160.7,675,157.2z"/>
	<path class="st3" d="M712.4,154.1v-40.6c0-10.2,2.4-18.1,7.3-23.8c4.8-5.7,12.2-8.5,22.1-8.5c10,0,17.3,2.8,22.2,8.5
		c4.8,5.7,7.2,13.6,7.2,23.8v19.8h-34.1v21.2c0,5.4,1.6,8.1,4.7,8.1c3.4,0,5.1-2.9,5.1-8.6v-10.5h24.2v10.8c0,8-2.9,14.4-8.6,19.4
		c-5.8,5-12.7,7.5-20.7,7.5s-15-2.5-20.7-7.5C715.3,168.5,712.4,162,712.4,154.1z M737.1,120.3h9.6v-13.2c0-4.8-1.6-7.3-4.9-7.3
		c-3.1,0-4.7,2.4-4.7,7.3V120.3z"/>
	<path class="st3" d="M778.3,155.8l18.9-6.7c0.5,1.5,0.9,2.6,1.2,3.4c0.3,0.8,0.8,2,1.5,3.5c0.7,1.5,1.4,2.7,2.1,3.6
		c0.7,0.8,1.5,1.6,2.6,2.3c1,0.7,2.2,1.1,3.3,1.1c3.1,0,4.6-1.8,4.6-5.4c0-1.3-0.3-2.7-0.9-4.1c-0.6-1.4-1.2-2.6-1.9-3.6
		c-0.7-1-1.8-2.3-3.4-3.9c-1.6-1.6-2.9-2.8-3.8-3.6c-0.9-0.8-2.4-2.1-4.6-4l-4-3.4c-5.2-4.5-9.3-9-12.3-13.4
		c-3-4.4-4.5-9.3-4.5-14.6c0-4.1,0.9-7.9,2.6-11.2c1.7-3.3,4.1-6,7-8.1s6.2-3.6,9.9-4.7c3.6-1.1,7.5-1.6,11.5-1.6
		c3.6,0,7,0.8,10.3,2.3c3.3,1.5,6.1,3.5,8.6,6c2.5,2.5,4.6,5.3,6.4,8.5c1.8,3.2,3.2,6.5,4.2,9.9l-17.7,6.1c-0.6-1.5-1.1-2.7-1.5-3.6
		c-0.4-1-1-2.2-1.9-3.7c-0.9-1.5-1.7-2.8-2.5-3.7c-0.8-0.9-1.8-1.7-3-2.5c-1.2-0.7-2.4-1.1-3.7-1.1c-1.7,0-3,0.6-4,1.8
		c-1,1.2-1.4,2.6-1.4,4.2c0,2.1,1.2,4.6,3.6,7.2c2.4,2.7,5.6,5.7,9.8,9.2l4.5,4c2.4,2.2,4.6,4.3,6.3,6.2c1.8,1.9,3.6,4.1,5.3,6.6
		c1.8,2.4,3.2,5,4.1,7.7c1,2.7,1.4,5.4,1.4,8.1c0,7.7-2.7,14.1-8.2,19.1c-5.4,5-12,7.5-19.7,7.5c-7.5,0-13.9-2.3-19.3-7
		C784.2,169.4,780.4,163.4,778.3,155.8z"/>
	<path class="st3" d="M846.1,75V51.9h24.7V75H846.1z M846.1,178.9V83.3h24.7v95.6H846.1z"/>
	<path class="st3" d="M901.8,154.1c0,1.2,0.8,2.1,2.5,2.9c1.7,0.8,3.9,1.4,6.6,1.9c2.7,0.5,5.7,1,8.9,1.6c3.2,0.5,6.5,1.2,9.8,2.1
		c3.3,0.9,6.2,1.9,8.9,3.1c2.7,1.2,4.9,2.9,6.6,5.1c1.7,2.2,2.5,4.8,2.5,7.7c0,4.1-0.6,7.6-1.8,10.7c-1.2,3.1-2.8,5.5-4.8,7.3
		c-2,1.8-4.4,3.3-7.4,4.4c-2.9,1.1-5.9,1.9-8.9,2.3c-3,0.4-6.4,0.6-10.1,0.6c-23.5,0-35.2-5.7-35.2-17.2c0-3.4,0.9-6.7,2.8-10.1
		c1.9-3.3,4.3-6.1,7.3-8.2c-2-1-3.9-2.2-5.8-3.6c-1.9-1.4-2.8-2.7-2.8-4c0-2.8,3.2-8.3,9.7-16.6c-5-9.1-7.5-18.2-7.5-27.4
		c0-4.7,0.5-9.1,1.6-13.2c1.1-4.1,2.8-7.9,5-11.3c2.2-3.4,5.3-6.1,9.1-8.1c3.8-2,8.3-3,13.3-3c7.5,0,13.2,2,17,6.1
		c3.6-4.1,9.5-6.1,17.9-6.1h3.1l-2.1,17.7c-4.8,0-8.3,1.1-10.5,3.2c2.1,3.7,3.1,9.2,3.1,16.6c0,4.3-0.6,8.5-1.9,12.4
		c-1.3,3.9-3.1,7.4-5.6,10.4c-2.4,3-5.5,5.4-9.3,7.2c-3.8,1.8-8,2.6-12.6,2.6c-0.9,0-2-0.1-3.3-0.3c-1.3-0.2-2.4-0.4-3.3-0.6
		l-1.3-0.2C902.3,152.3,901.8,153.7,901.8,154.1z M904,173.1h-1.8c-2.2,3.5-3.3,6.5-3.3,9.2c0,2.9,5.4,4.3,16.3,4.3
		c0.1,0,0.2,0,0.4,0c5.6,0,8.3-1.6,8.3-5c0-1.2-0.3-2.2-1-3.2c-0.6-1-1.6-1.7-2.8-2.3c-1.2-0.6-2.5-1.1-3.7-1.5
		c-1.2-0.4-2.7-0.7-4.5-0.9c-1.8-0.2-3.2-0.3-4.2-0.4C906.8,173.3,905.5,173.2,904,173.1z M911.6,132.6c4,0,6-5.7,6-17
		c0-11.6-1.9-17.4-5.6-17.4c-0.9,0-1.7,0.2-2.5,0.7c-0.7,0.5-1.3,1.2-1.7,2.2c-0.4,1-0.8,2-1,3.1c-0.3,1-0.5,2.4-0.6,4
		c-0.1,1.6-0.2,3-0.2,4.1s0,2.6,0,4.3C906,127.3,907.8,132.6,911.6,132.6z"/>
	<path class="st3" d="M955.3,178.9V83.3H980v6.7c2.3-2.7,5.2-4.8,8.5-6.4c3.3-1.6,6.7-2.4,10.3-2.4c3.4,0,6.4,1.1,9,3.2
		c2.7,2.1,4.6,4.7,5.9,7.8s1.9,6.3,1.9,9.6v77.1H991v-72.7c0-4.2-1.4-6.4-4.1-6.4c-0.3,0-0.6,0-0.9,0.1c-0.3,0.1-0.6,0.2-1,0.4
		s-0.6,0.3-0.8,0.4c-0.2,0.1-0.5,0.3-0.9,0.6c-0.3,0.3-0.6,0.5-0.8,0.7s-0.4,0.4-0.8,0.8c-0.3,0.4-0.6,0.6-0.7,0.7
		c-0.1,0.1-0.3,0.4-0.6,0.7l-0.5,0.6v74.1H955.3z"/>
</g>
</svg>
